<svg xmlns="http://www.w3.org/2000/svg" version="1.1" width="96" height="117" viewBox="0 0 1500 1823">
  <g transform="matrix(1,0,0,1,-3.1358571942015487,-2.9403225806452156)">
    <svg viewBox="0 0 204 248" data-background-color="#f8f5f0" preserveAspectRatio="xMidYMid meet" height="1823"
         width="1500" xmlns="http://www.w3.org/2000/svg">
      <g id="tight-bounds" transform="matrix(1,0,0,1,0.4264765784114104,0.4000000000000057)">
        <svg viewBox="0 0 203.14704684317718 247.2" height="247.2" width="203.14704684317718">
          <g>
            <svg viewBox="0 0 203.14704684317718 247.2" height="247.2" width="203.14704684317718">
              <g>
                <svg viewBox="0 0 203.1470468431772 247.20000000000002" height="247.2" width="203.14704684317718">
                  <g>
                    <svg viewBox="0 0 203.1470468431772 247.20000000000002" height="247.20000000000002"
                         width="203.1470468431772">
                      <g id="textblocktransform">
                        <svg viewBox="0 0 203.1470468431772 247.20000000000002" height="247.20000000000002"
                             width="203.1470468431772" id="textblock">
                          <g>
                            <svg viewBox="0 0 203.1470468431772 247.20000000000002" height="247.20000000000002"
                                 width="203.1470468431772">
                              <g transform="matrix(1,0,0,1,0,0)">
                                <svg width="203.1470468431772" viewBox="1 -34.8 40.35000000000001 49.1"
                                     height="247.20000000000002" data-palette-color="#1a1a1a">
                                  <path
                                    d="M38.15-30.7L38.15-30.7 37.55-30.65Q38.1-15.15 38.7-8.4L38.7-8.4Q38.85-6.75 40.1-5.15 41.35-3.55 41.35-2.43 41.35-1.3 40.68-0.5 40 0.3 38.88 0.3 37.75 0.3 36.98-1.07 36.2-2.45 36.05-4.05L36.05-4.05Q34.85-20.7 33.05-29.3L33.05-29.3Q28.5-27 24.15-21.35L24.15-21.35Q28.1-15.1 28.1-10.73 28.1-6.35 25.15-3.18 22.2 0 19.65 0 17.1 0 15.73-1.65 14.35-3.3 14.35-5.73 14.35-8.15 15.98-11.88 17.6-15.6 20.25-19.65L20.25-19.65Q17.95-23.1 14.95-25.75 11.95-28.4 9.1-29.4L9.1-29.4Q9.1-29.25 8.7-26.6L8.7-26.6Q6.95-15.65 6.3 2.2L6.3 2.2Q6.05 10.25 5.93 11.55 5.8 12.85 5.1 13.58 4.4 14.3 3.48 14.3 2.55 14.3 1.78 13.58 1 12.85 1 11.23 1 9.6 2.35 1.6L2.35 1.6Q5.15-15 5.35-30.05L5.35-30.05Q3.3-30.5 3.3-32.6L3.3-32.6Q3.3-33.55 4.2-34.18 5.1-34.8 6.4-34.8L6.4-34.8Q10.25-34.8 14.73-31.53 19.2-28.25 22.8-23.3L22.8-23.3Q26.6-28.35 30.65-31.58 34.7-34.8 38.15-34.8L38.15-34.8Q40.5-34.8 40.5-32.9L40.5-32.9Q40.5-32 39.73-31.35 38.95-30.7 38.15-30.7ZM24.15-8.95L24.15-8.95Q24.15-12.75 21.5-17.55L21.5-17.55Q17.45-11.05 17.45-7.75L17.45-7.75Q17.45-5.95 18.38-4.6 19.3-3.25 20.7-3.25 22.1-3.25 23.13-5.03 24.15-6.8 24.15-8.95Z"
                                    opacity="1" transform="matrix(1,0,0,1,0,0)" fill="#606887" class="wordmark-text-0"
                                    data-fill-palette-color="primary" id="text-0"></path>
                                </svg>
                              </g>
                            </svg>
                          </g>
                        </svg>
                      </g>
                    </svg>
                  </g>
                </svg>
              </g>
            </svg>
          </g>
          <defs></defs>
        </svg>
        <rect width="203.14704684317718" height="247.2" fill="none" stroke="none" visibility="hidden"></rect>
      </g>
    </svg>
  </g>
</svg>
